<svg width="24" height="43" viewBox="0 0 24 43" fill="none" xmlns="http://www.w3.org/2000/svg">
<g clip-path="url(#clip0_2162_1979)">
<path opacity="0.67076" d="M12.4688 22.418C12.1758 22.125 11.7656 22.125 11.4727 22.418L2.80078 30.9727C2.50781 31.2656 2.50781 31.7344 2.80078 31.9688L3.97266 33.1406C4.26562 33.4336 4.67578 33.4336 4.96875 33.1406L12 26.2266L18.9727 33.1406C19.2656 33.4336 19.7344 33.4336 19.9688 33.1406L21.1406 31.9688C21.4336 31.7344 21.4336 31.2656 21.1406 30.9727L12.4688 22.418Z" fill="white"/>
<path opacity="0.273776" d="M12.5938 11.9961C12.2227 11.625 11.7031 11.625 11.332 11.9961L0.347656 22.832C-0.0234375 23.2031 -0.0234375 23.7969 0.347656 24.0938L1.83203 25.5781C2.20312 25.9492 2.72266 25.9492 3.09375 25.5781L12 16.8203L20.832 25.5781C21.2031 25.9492 21.7969 25.9492 22.0938 25.5781L23.5781 24.0938C23.9492 23.7969 23.9492 23.2031 23.5781 22.832L12.5938 11.9961Z" fill="white" fill-opacity="0.518119"/>
</g>
<defs>
<clipPath id="clip0_2162_1979">
<rect width="24" height="43" fill="white"/>
</clipPath>
</defs>
</svg>
